<mxfile host="app.diagrams.net" modified="2024-04-16T09:56:23.674Z" agent="Mozilla/5.0 (Macintosh; Intel Mac OS X 10_15_7) AppleWebKit/537.36 (KHTML, like Gecko) Chrome/123.0.0.0 Safari/537.36" version="24.2.5" etag="awyFpKvnBkYElC3_IhYO" type="github">
  <diagram name="Page-1" id="WXa5V0mfgE9m_yraOXVh">
    <mxGraphModel>
      <root>
        <mxCell id="0" />
        <mxCell id="1" parent="0" />
      </root>
    </mxGraphModel>
  </diagram>
</mxfile>
